<svg width="64" height="64" viewBox="0 0 64 64" fill="none" xmlns="http://www.w3.org/2000/svg">
<path d="M64 57.625H0V6.375H64V57.625Z" fill="#E6F9FF"/>
<path d="M64 57.625H32V6.375H64V57.625Z" fill="#CCEFFF"/>
<path d="M60.25 10.125H3.75V47.625H60.25V10.125Z" fill="#ACE3FC"/>
<path d="M60.25 10.125H32V47.625H60.25V10.125Z" fill="#86D6F2"/>
<path d="M15 27C18.1066 27 20.625 24.4816 20.625 21.375C20.625 18.2684 18.1066 15.75 15 15.75C11.8934 15.75 9.375 18.2684 9.375 21.375C9.375 24.4816 11.8934 27 15 27Z" fill="#FFDC40"/>
<path d="M60.25 47.625V28.0984L50 17.8484L31.6875 36.1609L24.8125 29.2859L6.47339 47.625H60.25Z" fill="#66E26F"/>
<path d="M50 17.8484L32 35.8484V47.625H60.25V28.0984L50 17.8484Z" fill="#48CC4E"/>
</svg>
