<svg width="166" height="47" viewBox="0 0 166 47" fill="none" xmlns="http://www.w3.org/2000/svg">
<path d="M8.10547 37H3.18359V8.5625H8.10547V37ZM24.6289 26.043H19.1211V37H14.1797V8.5625H24.1797C27.4609 8.5625 29.9935 9.29818 31.7773 10.7695C33.5612 12.2409 34.4531 14.3698 34.4531 17.1562C34.4531 19.0573 33.9909 20.6523 33.0664 21.9414C32.1549 23.2174 30.8789 24.2005 29.2383 24.8906L35.625 36.7461V37H30.332L24.6289 26.043ZM19.1211 22.0781H24.1992C25.8659 22.0781 27.168 21.6615 28.1055 20.8281C29.043 19.9818 29.5117 18.8294 29.5117 17.3711C29.5117 15.8477 29.0755 14.6693 28.2031 13.8359C27.3438 13.0026 26.0547 12.5729 24.3359 12.5469H19.1211V22.0781ZM91.582 37H86.6406L73.9648 16.8242V37H69.0234V8.5625H73.9648L86.6797 28.8164V8.5625H91.582V37ZM115.547 24.7148L112.324 28.1328V37H107.383V8.5625H112.324V21.9023L115.059 18.5234L123.379 8.5625H129.355L118.789 21.1602L129.961 37H124.102L115.547 24.7148ZM164.453 12.5469H155.586V37H150.684V12.5469H141.895V8.5625H164.453V12.5469Z" fill="#2196F3"/>
<path d="M137.832 37H132.91V8.5625H137.832V37Z" fill="#86C7FB"/>
<path d="M48.3927 24.5518V14.092C48.3927 12.9377 49.3372 12 50.5 12C51.6628 12 52.6073 12.9377 52.6073 14.092V24.5518C52.6073 25.7061 51.6628 26.6437 50.5 26.6437C49.3372 26.6437 48.3927 25.7061 48.3927 24.5518ZM58.8531 15.0674C58.1705 14.5308 57.1745 14.6486 56.6339 15.3274C56.0934 16.0073 56.2109 16.9938 56.8958 17.5315C59.4026 19.4946 60.8396 22.4343 60.8396 25.5983C60.8396 31.2576 56.2008 35.8626 50.5011 35.8626C44.8003 35.8626 40.1615 31.2576 40.1615 25.5983C40.1615 22.4354 41.5974 19.4969 44.102 17.5349C44.7869 16.9983 44.9044 16.0117 44.3638 15.3307C43.8233 14.6508 42.8306 14.5352 42.1435 15.0707C38.8745 17.6315 37 21.4688 37 25.5983C37 32.9885 43.0567 39 50.5 39C57.9433 39 64 32.9874 64 25.5983C64 21.4666 62.1232 17.6293 58.8531 15.0674Z" fill="#86C7FB"/>
</svg>
