<svg width="18" height="20" viewBox="0 0 18 20" fill="none" xmlns="http://www.w3.org/2000/svg">
<path d="M17.9345 8.28793C17.8105 8.0588 17.5303 7.91081 17.221 7.91081H10.7461L13.8649 0.841627C13.9892 0.559672 13.851 0.245802 13.5341 0.0909239C13.2171 -0.0640376 12.8092 -0.0171712 12.5582 0.202883L0.206328 11.0325C-0.00340641 11.2163 -0.0586706 11.4832 0.06557 11.7123C0.189603 11.9414 0.469768 12.0894 0.779123 12.0894H4.98845C5.41882 12.0894 5.76755 11.8074 5.76755 11.4595C5.76755 11.1116 5.41882 10.8296 4.98845 10.8296H2.55734L11.1134 3.32798L8.90702 8.329C8.82204 8.52193 8.86214 8.73627 9.00819 8.90366C9.15415 9.07105 9.39567 9.17058 9.64903 9.17058H15.4426L6.88779 16.6713L9.09452 11.6711C9.1797 11.4782 9.14355 11.2639 8.9975 11.0965C8.85144 10.9291 8.61407 10.8295 8.36071 10.8295H8.35302C7.98685 10.8295 7.68248 11.0337 7.59989 11.309L4.1357 19.1583C4.01125 19.4403 4.14951 19.7542 4.46635 19.909C4.59152 19.9703 4.73093 20 4.86919 20C5.08101 20 5.29043 19.9302 5.4423 19.7971L17.7935 8.96758C18.0034 8.78381 18.0586 8.51705 17.9345 8.28793Z" fill="#90CBF9"/>
</svg>
