<svg width="22" height="23" viewBox="0 0 22 23" fill="none" xmlns="http://www.w3.org/2000/svg">
<path d="M19.125 0H2.625C2.52554 9.94544e-07 2.43016 0.0395101 2.35984 0.109836C2.28951 0.180162 2.25 0.275544 2.25 0.375V1.5H0.375C0.275544 1.5 0.180162 1.53951 0.109836 1.60984C0.0395101 1.68016 9.94544e-07 1.77554 0 1.875V15.375C9.94544e-07 15.4745 0.0395101 15.5698 0.109836 15.6402C0.180162 15.7105 0.275544 15.75 0.375 15.75H2.25V16.875C2.25 16.9745 2.28951 17.0698 2.35984 17.1402C2.43016 17.2105 2.52554 17.25 2.625 17.25H3V20.25C3.00056 20.7471 3.19829 21.2237 3.5498 21.5752C3.90131 21.9267 4.37789 22.1244 4.875 22.125H8.25C8.25 22.2245 8.28951 22.3198 8.35984 22.3902C8.43016 22.4605 8.52554 22.5 8.625 22.5H13.125C13.2245 22.5 13.3198 22.4605 13.3902 22.3902C13.4605 22.3198 13.5 22.2245 13.5 22.125H16.875C17.3721 22.1244 17.8487 21.9267 18.2002 21.5752C18.5517 21.2237 18.7494 20.7471 18.75 20.25V17.25H19.125C19.2245 17.25 19.3198 17.2105 19.3902 17.1402C19.4605 17.0698 19.5 16.9745 19.5 16.875V15.75H21.375C21.4745 15.75 21.5698 15.7105 21.6402 15.6402C21.7105 15.5698 21.75 15.4745 21.75 15.375V1.875C21.75 1.77554 21.7105 1.68016 21.6402 1.60984C21.5698 1.53951 21.4745 1.5 21.375 1.5H19.5V0.375C19.5 0.275544 19.4605 0.180162 19.3902 0.109836C19.3198 0.0395101 19.2245 9.94544e-07 19.125 0ZM2.25 4.5H0.75V3.75H2.25V4.5ZM2.25 5.25V6H0.75V5.25H2.25ZM2.25 6.75V7.5H0.75V6.75H2.25ZM2.25 8.25V9H0.75V8.25H2.25ZM2.25 9.75V10.5H0.75V9.75H2.25ZM2.25 11.25V12H0.75V11.25H2.25ZM2.25 12.75V13.5H0.75V12.75H2.25ZM3 4.875H3.49612L4.10616 6.4001C3.63128 7.84536 3.63128 9.40464 4.10616 10.8499L3.49612 12.375H3L3 4.875ZM9 8.625C9 8.25416 9.10997 7.89165 9.31599 7.58331C9.52202 7.27496 9.81486 7.03464 10.1575 6.89273C10.5001 6.75081 10.8771 6.71368 11.2408 6.78603C11.6045 6.85837 11.9386 7.03695 12.2008 7.29917C12.463 7.5614 12.6416 7.89549 12.714 8.2592C12.7863 8.62292 12.7492 8.99992 12.6073 9.34253C12.4654 9.68514 12.225 9.97798 11.9167 10.184C11.6084 10.39 11.2458 10.5 10.875 10.5C10.3779 10.4994 9.90131 10.3017 9.5498 9.9502C9.19829 9.59869 9.00056 9.12211 9 8.625ZM12.9765 7.05379L15.6378 4.39253C16.1073 4.91975 16.4861 5.52113 16.759 6.17223C16.3167 6.06294 15.856 6.05082 15.4086 6.13668C14.9612 6.22255 14.5377 6.40437 14.1673 6.66962L13.1819 7.37347C13.1213 7.2621 13.0526 7.15526 12.9765 7.05379ZM12.4462 6.52345C12.1505 6.30198 11.8114 6.14548 11.451 6.06422C11.0906 5.98296 10.7172 5.97877 10.3551 6.05191L9.52991 4.8967C9.27732 4.54401 9.12484 4.12956 9.08862 3.69727C9.05241 3.26498 9.1338 2.83094 9.32419 2.44114C10.331 2.18874 11.3842 2.18627 12.3922 2.43395C13.4001 2.68162 14.3323 3.17193 15.1075 3.86219L12.4462 6.52345ZM8.91962 5.33263L9.62349 6.31804C9.51211 6.37872 9.40527 6.44737 9.30379 6.52345L6.64254 3.86219C7.16975 3.39271 7.77113 3.01385 8.42222 2.74102C8.31293 3.18328 8.3008 3.64397 8.38667 4.09138C8.47254 4.53878 8.65436 4.96225 8.91962 5.33263ZM6.1122 4.39253L8.77345 7.05379C8.55198 7.34947 8.39549 7.6886 8.31423 8.04897C8.23296 8.40934 8.22877 8.78282 8.30191 9.14493L7.14674 9.97009C6.79405 10.2227 6.37959 10.3751 5.94729 10.4114C5.51499 10.4476 5.08095 10.3662 4.69114 10.1758C4.43874 9.16901 4.43627 8.11578 4.68395 7.10781C4.93163 6.09985 5.42194 5.1677 6.1122 4.39253ZM5.74663 11.1702C6.4052 11.17 7.0472 10.9638 7.58267 10.5804L8.56805 9.87653C8.62873 9.9879 8.69738 10.0947 8.77345 10.1962L6.1122 12.8575C5.64275 12.3303 5.26391 11.729 4.99108 11.0779C5.23827 11.1391 5.49197 11.1701 5.74663 11.1702ZM9.30379 10.7266C9.59947 10.948 9.9386 11.1045 10.299 11.1858C10.6594 11.267 11.0328 11.2712 11.3949 11.1981L12.2201 12.3533C12.4727 12.706 12.6252 13.1204 12.6614 13.5527C12.6976 13.985 12.6162 14.4191 12.4258 14.8089C11.419 15.0613 10.3658 15.0637 9.35782 14.8161C8.34985 14.5684 7.41771 14.0781 6.64254 13.3878L9.30379 10.7266ZM12.8304 11.9174L12.1265 10.932C12.2379 10.8713 12.3447 10.8026 12.4462 10.7266L15.1075 13.3878C14.5802 13.8573 13.9789 14.2361 13.3278 14.509C13.4371 14.0667 13.4492 13.606 13.3633 13.1586C13.2775 12.7112 13.0956 12.2878 12.8304 11.9174ZM15.6378 12.8575L12.9765 10.1962C13.198 9.90053 13.3545 9.5614 13.4358 9.20103C13.517 8.84066 13.5212 8.46718 13.4481 8.10507L14.6033 7.27991C14.956 7.02733 15.3704 6.87485 15.8027 6.83864C16.235 6.80242 16.6691 6.88382 17.0589 7.07419C17.3113 8.08099 17.3137 9.13422 17.0661 10.1422C16.8184 11.1502 16.3281 12.0823 15.6378 12.8575ZM17.6438 6.4001L18.2539 4.875H18.75V12.375H18.2539L17.6438 10.8499C18.1187 9.40464 18.1187 7.84536 17.6438 6.4001ZM19.5 12.75H21V13.5H19.5V12.75ZM19.5 12V11.25H21V12H19.5ZM19.5 10.5V9.75H21V10.5H19.5ZM19.5 9V8.25H21V9H19.5ZM19.5 7.5V6.75H21V7.5H19.5ZM19.5 6V5.25H21V6H19.5ZM19.5 4.5V3.75H21V4.5H19.5ZM3 0.75H18.75V4.125H18C17.9251 4.125 17.8518 4.14746 17.7898 4.18947C17.7277 4.23149 17.6797 4.29114 17.6518 4.36073L17.2322 5.40985C16.6378 4.23395 15.7289 3.24594 14.6066 2.55569C13.4843 1.86544 12.1926 1.5 10.875 1.5C9.55742 1.5 8.26566 1.86544 7.14336 2.55569C6.02106 3.24594 5.11219 4.23395 4.51783 5.40985L4.09818 4.36073C4.07034 4.29114 4.0223 4.23149 3.96023 4.18947C3.89817 4.14746 3.82495 4.125 3.75 4.125H3V0.75ZM2.25 2.25V3H0.75V2.25H2.25ZM0.75 15V14.25H2.25V15H0.75ZM4.875 21.375C4.57674 21.3747 4.29079 21.256 4.07988 21.0451C3.86898 20.8342 3.75034 20.5483 3.75 20.25V17.25H4.5V19.875C4.50023 20.0738 4.57932 20.2645 4.71992 20.4051C4.86052 20.5457 5.05116 20.6248 5.25 20.625H8.25V21.375H4.875ZM5.25 19.875V17.25H6V19.875H5.25ZM12.75 21.75H9V19.125H9.75V20.25H10.5V19.125H11.25V20.25H12V19.125H12.75V21.75ZM8.625 18.375C8.52554 18.375 8.43016 18.4145 8.35984 18.4848C8.28951 18.5552 8.25 18.6505 8.25 18.75V19.875H6.75V17.25H15V19.875H13.5V18.75C13.5 18.6505 13.4605 18.5552 13.3902 18.4848C13.3198 18.4145 13.2245 18.375 13.125 18.375H8.625ZM16.5 17.25V19.875H15.75V17.25H16.5ZM18 20.25C17.9997 20.5483 17.881 20.8342 17.6701 21.0451C17.4592 21.256 17.1733 21.3747 16.875 21.375H13.5V20.625H16.5C16.6988 20.6248 16.8895 20.5457 17.0301 20.4051C17.1707 20.2645 17.2498 20.0738 17.25 19.875V17.25H18V20.25ZM18.75 16.5H3V13.125H3.75C3.82495 13.125 3.89817 13.1025 3.96023 13.0605C4.0223 13.0185 4.07034 12.9589 4.09818 12.8893L4.51783 11.8401C5.11219 13.016 6.02106 14.0041 7.14336 14.6943C8.26566 15.3846 9.55742 15.75 10.875 15.75C12.1926 15.75 13.4843 15.3846 14.6066 14.6943C15.7289 14.0041 16.6378 13.016 17.2322 11.8401L17.6518 12.8893C17.6797 12.9589 17.7277 13.0185 17.7898 13.0605C17.8518 13.1025 17.9251 13.125 18 13.125H18.75V16.5ZM19.5 15V14.25H21V15H19.5ZM21 2.25V3H19.5V2.25H21Z" fill="#90CBF9"/>
<path d="M4.125 2.25C4.33211 2.25 4.5 2.08211 4.5 1.875C4.5 1.66789 4.33211 1.5 4.125 1.5C3.91789 1.5 3.75 1.66789 3.75 1.875C3.75 2.08211 3.91789 2.25 4.125 2.25Z" fill="#90CBF9"/>
<path d="M5.25 2.25C5.45711 2.25 5.625 2.08211 5.625 1.875C5.625 1.66789 5.45711 1.5 5.25 1.5C5.04289 1.5 4.875 1.66789 4.875 1.875C4.875 2.08211 5.04289 2.25 5.25 2.25Z" fill="#90CBF9"/>
<path d="M4.125 3.375C4.33211 3.375 4.5 3.20711 4.5 3C4.5 2.79289 4.33211 2.625 4.125 2.625C3.91789 2.625 3.75 2.79289 3.75 3C3.75 3.20711 3.91789 3.375 4.125 3.375Z" fill="#90CBF9"/>
<path d="M4.125 15.75C4.33211 15.75 4.5 15.5821 4.5 15.375C4.5 15.1679 4.33211 15 4.125 15C3.91789 15 3.75 15.1679 3.75 15.375C3.75 15.5821 3.91789 15.75 4.125 15.75Z" fill="#90CBF9"/>
<path d="M4.125 14.625C4.33211 14.625 4.5 14.4571 4.5 14.25C4.5 14.0429 4.33211 13.875 4.125 13.875C3.91789 13.875 3.75 14.0429 3.75 14.25C3.75 14.4571 3.91789 14.625 4.125 14.625Z" fill="#90CBF9"/>
<path d="M5.25 15.75C5.45711 15.75 5.625 15.5821 5.625 15.375C5.625 15.1679 5.45711 15 5.25 15C5.04289 15 4.875 15.1679 4.875 15.375C4.875 15.5821 5.04289 15.75 5.25 15.75Z" fill="#90CBF9"/>
<path d="M17.625 15.75C17.8321 15.75 18 15.5821 18 15.375C18 15.1679 17.8321 15 17.625 15C17.4179 15 17.25 15.1679 17.25 15.375C17.25 15.5821 17.4179 15.75 17.625 15.75Z" fill="#90CBF9"/>
<path d="M16.5 15.75C16.7071 15.75 16.875 15.5821 16.875 15.375C16.875 15.1679 16.7071 15 16.5 15C16.2929 15 16.125 15.1679 16.125 15.375C16.125 15.5821 16.2929 15.75 16.5 15.75Z" fill="#90CBF9"/>
<path d="M17.625 14.625C17.8321 14.625 18 14.4571 18 14.25C18 14.0429 17.8321 13.875 17.625 13.875C17.4179 13.875 17.25 14.0429 17.25 14.25C17.25 14.4571 17.4179 14.625 17.625 14.625Z" fill="#90CBF9"/>
<path d="M17.625 2.25C17.8321 2.25 18 2.08211 18 1.875C18 1.66789 17.8321 1.5 17.625 1.5C17.4179 1.5 17.25 1.66789 17.25 1.875C17.25 2.08211 17.4179 2.25 17.625 2.25Z" fill="#90CBF9"/>
<path d="M17.625 3.375C17.8321 3.375 18 3.20711 18 3C18 2.79289 17.8321 2.625 17.625 2.625C17.4179 2.625 17.25 2.79289 17.25 3C17.25 3.20711 17.4179 3.375 17.625 3.375Z" fill="#90CBF9"/>
<path d="M16.5 2.25C16.7071 2.25 16.875 2.08211 16.875 1.875C16.875 1.66789 16.7071 1.5 16.5 1.5C16.2929 1.5 16.125 1.66789 16.125 1.875C16.125 2.08211 16.2929 2.25 16.5 2.25Z" fill="#90CBF9"/>
</svg>
