<svg width="24" height="24" viewBox="0 0 24 24" fill="none" xmlns="http://www.w3.org/2000/svg">
<path d="M20.4 2.274V0H19.6V2.032C19.4675 2.01175 19.334 2.00125 19.2 2H18.4V0H17.6V2H16.4V0H15.6V2H14.4V0H13.6V2H12.4V0H11.6V2H10.4V0H9.59999V2H8.39999V0H7.59999V2H6.39999V0H5.59999V2H4.79999C4.66599 2.00125 4.53249 2.01175 4.39999 2.032V0H3.6V2.274C3.01937 2.55138 2.55137 3.01938 2.274 3.6H0V4.4H2.032C2.01175 4.5325 2.00125 4.666 2 4.8V5.6H0V6.4H2V7.6H0V8.4H2V9.6H0V10.4H2V11.6H0V12.4H2V13.6H0V14.4H2V15.6H0V16.4H2V17.6H0V18.4H2V19.2C2.00125 19.334 2.01175 19.4675 2.032 19.6H0V20.4H2.274C2.55137 20.9806 3.01937 21.4486 3.6 21.726V24H4.39999V21.968C4.53249 21.9883 4.66599 21.9988 4.79999 22H5.59999V24H6.39999V22H7.59999V24H8.39999V22H9.59999V24H10.4V22H11.6V24H12.4V22H13.6V24H14.4V22H15.6V24H16.4V22H17.6V24H18.4V22H19.2C19.334 21.9988 19.4675 21.9883 19.6 21.968V24H20.4V21.726C20.9806 21.4486 21.4486 20.9806 21.726 20.4H24V19.6H21.968C21.9882 19.4675 21.9987 19.334 22 19.2V18.4H24V17.6H22V16.4H24V15.6H22V14.4H24V13.6H22V12.4H24V11.6H22V10.4H24V9.6H22V8.4H24V7.6H22V6.4H24V5.6H22V4.8C21.9987 4.666 21.9882 4.5325 21.968 4.4H24V3.6H21.726C21.4486 3.01938 20.9806 2.55138 20.4 2.274ZM21.2 19.2C21.1986 20.304 20.304 21.1986 19.2 21.2H4.79999C3.696 21.1986 2.80137 20.304 2.8 19.2V4.8C2.80137 3.696 3.696 2.80138 4.79999 2.8H19.2C20.304 2.80138 21.1986 3.696 21.2 4.8V19.2Z" fill="#90CBF9"/>
<path d="M18.7999 4H5.19988C4.53725 4 3.99988 4.53737 3.99988 5.2V18.8C3.99988 19.4626 4.53725 20 5.19988 20H18.7999C19.4625 20 19.9999 19.4626 19.9999 18.8V5.2C19.9999 4.53737 19.4625 4 18.7999 4ZM19.1999 18.8C19.1999 19.021 19.0209 19.2 18.7999 19.2H5.19988C4.97888 19.2 4.79988 19.021 4.79988 18.8V5.2C4.79988 4.979 4.97888 4.8 5.19988 4.8H18.7999C19.0209 4.8 19.1999 4.979 19.1999 5.2V18.8Z" fill="#90CBF9"/>
<path d="M17.6 5.60001H18.4V6.40001H17.6V5.60001Z" fill="#90CBF9"/>
<path d="M5.59998 17.6H6.39997V18.4H5.59998V17.6Z" fill="#90CBF9"/>
<path d="M5.59998 6.40001V7.60001H6.39997V6.40001H7.59997V5.60001H6.39997C5.9581 5.60001 5.59998 5.95813 5.59998 6.40001Z" fill="#90CBF9"/>
<path d="M17.6 17.6H16.4V18.4H18.4V16.4H17.6V17.6Z" fill="#90CBF9"/>
</svg>
