<svg width="24" height="24" viewBox="0 0 24 24" fill="none" xmlns="http://www.w3.org/2000/svg">
<path d="M3.74927 1.87538V4.12613V20.6246V22.1246C3.74927 23.1585 4.59039 23.9996 5.62427 23.9996H18.3758C19.4096 23.9996 20.2508 23.1585 20.2508 22.1246V20.6246V4.12613V1.87538C20.2508 0.841505 19.4096 0.000379562 18.3758 0.000379562H5.62427C4.59039 0.000379562 3.74927 0.841505 3.74927 1.87538V1.87538ZM6.75264 17.6355C6.75527 18.1121 6.93677 18.5884 7.29977 18.9514C7.65377 19.3054 8.12439 19.5004 8.62539 19.5004C8.63927 19.5004 8.65239 19.4966 8.66627 19.4963C8.67264 19.4966 8.67752 19.5 8.68427 19.5H11.1548L13.4063 21.7496H5.62427C5.00402 21.7496 4.49927 21.2449 4.49927 20.6246V12.9023L6.75039 15.1549V17.6254C6.75039 17.6291 6.75227 17.6321 6.75264 17.6355V17.6355ZM13.9324 12.3184C13.8098 12.195 13.6178 12.1733 13.4708 12.264C13.1696 12.4496 11.6235 13.4029 10.1471 14.3479C7.47789 13.5375 5.62502 11.0561 5.62502 8.25113C5.62502 4.73588 8.48477 1.87613 12 1.87613C15.5153 1.87613 18.375 4.73588 18.375 8.25113C18.375 11.4386 15.969 14.1263 12.8798 14.5613C13.4291 13.6853 13.8675 12.9743 13.9868 12.78C14.0779 12.6323 14.055 12.441 13.9324 12.3184ZM12.5055 13.7453C11.2335 15.7819 9.75077 18.0915 9.42114 18.4211C8.99627 18.846 8.25489 18.846 7.83002 18.4211C7.39127 17.9824 7.39127 17.2688 7.83002 16.83C8.15964 16.5004 10.4689 15.0176 12.5055 13.7453ZM18.3758 23.2496H5.62427C5.00402 23.2496 4.49927 22.7449 4.49927 22.1246V22.1153C4.81352 22.3534 5.20052 22.4996 5.62427 22.4996H14.307C14.3093 22.4996 14.3111 22.5008 14.313 22.5008C14.3149 22.5008 14.3168 22.4996 14.319 22.4996H18.3758C18.7995 22.4996 19.1865 22.353 19.5008 22.1153V22.1246C19.5008 22.7449 18.996 23.2496 18.3758 23.2496ZM19.5008 1.87538V4.12613V20.6246C19.5008 21.2449 18.996 21.7496 18.3758 21.7496H14.4671L11.5755 18.8603C11.541 18.8254 11.4994 18.798 11.4533 18.7789C11.4075 18.7598 11.3588 18.75 11.31 18.75H10.1224C10.5769 18.168 11.5275 16.701 12.3769 15.3593C16.116 15.1601 19.125 12.0191 19.125 8.25113C19.125 4.32225 15.9289 1.12613 12 1.12613C8.07114 1.12613 4.87502 4.32225 4.87502 8.25113C4.87502 11.1791 6.68177 13.7903 9.35139 14.8613C8.55452 15.3799 7.85927 15.849 7.50039 16.1295V14.9996C7.50039 14.9981 7.49964 14.997 7.49964 14.9959C7.49927 14.9483 7.48989 14.901 7.47152 14.8564C7.45239 14.8103 7.42502 14.7686 7.39014 14.7341L4.49927 11.8414V4.12613V1.87538C4.49927 1.25513 5.00402 0.75038 5.62427 0.75038H18.3758C18.996 0.75038 19.5008 1.25513 19.5008 1.87538V1.87538Z" fill="#90CBF9"/>
<path d="M12 6.00113C10.7591 6.00113 9.75 7.01025 9.75 8.25113C9.75 9.492 10.7591 10.5011 12 10.5011C13.2409 10.5011 14.25 9.492 14.25 8.25113C14.25 7.01025 13.2409 6.00113 12 6.00113ZM12 9.75113C11.1727 9.75113 10.5 9.07838 10.5 8.25113C10.5 7.42388 11.1727 6.75113 12 6.75113C12.8273 6.75113 13.5 7.42388 13.5 8.25113C13.5 9.07838 12.8273 9.75113 12 9.75113Z" fill="#90CBF9"/>
<path d="M12.0109 7.87575C12.2179 7.87575 12.3859 7.70813 12.3859 7.50075C12.3859 7.29338 12.2179 7.12575 12.0109 7.12575H12.0067C11.7997 7.12575 11.634 7.29338 11.634 7.50075C11.634 7.70813 11.8039 7.87575 12.0109 7.87575Z" fill="#90CBF9"/>
<path d="M12.0109 8.62575H12.0067C11.7997 8.62575 11.634 8.79338 11.634 9.00075C11.634 9.20813 11.8035 9.37575 12.0109 9.37575C12.2179 9.37575 12.3859 9.20813 12.3859 9.00075C12.3859 8.79338 12.2179 8.62575 12.0109 8.62575Z" fill="#90CBF9"/>
<path d="M12.7608 7.87575H12.7567C12.5497 7.87575 12.384 8.04338 12.384 8.25075C12.384 8.45813 12.5535 8.62575 12.7608 8.62575C12.9678 8.62575 13.1358 8.45813 13.1358 8.25075C13.1358 8.04338 12.9678 7.87575 12.7608 7.87575Z" fill="#90CBF9"/>
<path d="M8.63548 18.0004C8.84248 18.0004 9.01048 17.8327 9.01048 17.6254C9.01048 17.418 8.84248 17.2504 8.63548 17.2504H8.63136C8.42436 17.2504 8.25861 17.418 8.25861 17.6254C8.25861 17.8327 8.42848 18.0004 8.63548 18.0004Z" fill="#90CBF9"/>
<path d="M5.63548 20.25H5.63135C5.42435 20.25 5.25861 20.4176 5.25861 20.625C5.25861 20.8324 5.4281 21 5.63548 21C5.84248 21 6.01047 20.8324 6.01047 20.625C6.01047 20.4176 5.84248 20.25 5.63548 20.25V20.25Z" fill="#90CBF9"/>
<path d="M11.2608 7.87575H11.2567C11.0497 7.87575 10.884 8.04338 10.884 8.25075C10.884 8.45813 11.0535 8.62575 11.2608 8.62575C11.4678 8.62575 11.6358 8.45813 11.6358 8.25075C11.6358 8.04338 11.4678 7.87575 11.2608 7.87575Z" fill="#90CBF9"/>
</svg>
