<svg width="24" height="24" viewBox="0 0 24 24" fill="none" xmlns="http://www.w3.org/2000/svg">
<path d="M6.80001 2H3.60001C3.49393 2 3.39218 2.04214 3.31717 2.11716C3.24216 2.19217 3.20001 2.29391 3.20001 2.4V10.4C3.20001 10.5061 3.24216 10.6078 3.31717 10.6828C3.39218 10.7579 3.49393 10.8 3.60001 10.8H8.40001C8.5061 10.8 8.60784 10.7579 8.68286 10.6828C8.75787 10.6078 8.80001 10.5061 8.80001 10.4V2.4C8.80001 2.29391 8.75787 2.19217 8.68286 2.11716C8.60784 2.04214 8.5061 2 8.40001 2C8.29393 2 8.19218 2.04214 8.11717 2.11716C8.04215 2.19217 8.00001 2.29391 8.00001 2.4V10H7.20001V2.4C7.20001 2.29391 7.15787 2.19217 7.08286 2.11716C7.00784 2.04214 6.9061 2 6.80001 2ZM4.00001 2.8H4.80001V10H4.00001V2.8ZM5.60001 2.8H6.40001V10H5.60001V2.8Z" fill="#90CBF9"/>
<path d="M20.4 12H12.4C12.2939 12 12.1922 12.0421 12.1172 12.1172C12.0421 12.1922 12 12.2939 12 12.4C12 12.5061 12.0421 12.6078 12.1172 12.6828C12.1922 12.7579 12.2939 12.8 12.4 12.8H20.4C20.5061 12.8 20.6078 12.7579 20.6828 12.6828C20.7579 12.6078 20.8 12.5061 20.8 12.4C20.8 12.2939 20.7579 12.1922 20.6828 12.1172C20.6078 12.0421 20.5061 12 20.4 12Z" fill="#90CBF9"/>
<path d="M20.8 14C20.8 13.8939 20.7579 13.7922 20.6829 13.7172C20.6079 13.6421 20.5061 13.6 20.4 13.6H10.8C10.6939 13.6 10.5922 13.6421 10.5172 13.7172C10.4422 13.7922 10.4 13.8939 10.4 14V16.4C10.4 16.5061 10.4422 16.6078 10.5172 16.6828C10.5922 16.7579 10.6939 16.8 10.8 16.8H20.4C20.5061 16.8 20.6079 16.7579 20.6829 16.6828C20.7579 16.6078 20.8 16.5061 20.8 16.4V14ZM20 16H11.2V14.4H12V14.8C12 14.9061 12.0422 15.0078 12.1172 15.0828C12.1922 15.1579 12.2939 15.2 12.4 15.2C12.5061 15.2 12.6079 15.1579 12.6829 15.0828C12.7579 15.0078 12.8 14.9061 12.8 14.8V14.4H13.6V14.8C13.6 14.9061 13.6422 15.0078 13.7172 15.0828C13.7922 15.1579 13.8939 15.2 14 15.2C14.1061 15.2 14.2079 15.1579 14.2829 15.0828C14.3579 15.0078 14.4 14.9061 14.4 14.8V14.4H15.2V14.8C15.2 14.9061 15.2422 15.0078 15.3172 15.0828C15.3922 15.1579 15.4939 15.2 15.6 15.2C15.7061 15.2 15.8079 15.1579 15.8829 15.0828C15.9579 15.0078 16 14.9061 16 14.8V14.4H16.8V14.8C16.8 14.9061 16.8422 15.0078 16.9172 15.0828C16.9922 15.1579 17.0939 15.2 17.2 15.2C17.3061 15.2 17.4079 15.1579 17.4829 15.0828C17.5579 15.0078 17.6 14.9061 17.6 14.8V14.4H18.4V14.8C18.4 14.9061 18.4422 15.0078 18.5172 15.0828C18.5922 15.1579 18.6939 15.2 18.8 15.2C18.9061 15.2 19.0079 15.1579 19.0829 15.0828C19.1579 15.0078 19.2 14.9061 19.2 14.8V14.4H20V16Z" fill="#90CBF9"/>
<path d="M18 20C17.8939 20 17.7922 20.0421 17.7172 20.1172C17.6422 20.1922 17.6 20.2939 17.6 20.4C17.6 20.5061 17.6422 20.6078 17.7172 20.6828C17.7922 20.7579 17.8939 20.8 18 20.8H20.4C20.5061 20.8 20.6079 20.7579 20.6829 20.6828C20.7579 20.6078 20.8 20.5061 20.8 20.4V18C20.8 17.8939 20.7579 17.7922 20.6829 17.7172C20.6079 17.6421 20.5061 17.6 20.4 17.6H10.8C10.6939 17.6 10.5922 17.6421 10.5172 17.7172C10.4422 17.7922 10.4 17.8939 10.4 18V20.4C10.4 20.5061 10.4422 20.6078 10.5172 20.6828C10.5922 20.7579 10.6939 20.8 10.8 20.8H16.4C16.5061 20.8 16.6079 20.7579 16.6829 20.6828C16.7579 20.6078 16.8 20.5061 16.8 20.4C16.8 20.2939 16.7579 20.1922 16.6829 20.1172C16.6079 20.0421 16.5061 20 16.4 20H11.2V18.4H12V18.8C12 18.9061 12.0422 19.0078 12.1172 19.0828C12.1922 19.1579 12.2939 19.2 12.4 19.2C12.5061 19.2 12.6079 19.1579 12.6829 19.0828C12.7579 19.0078 12.8 18.9061 12.8 18.8V18.4H13.6V18.8C13.6 18.9061 13.6422 19.0078 13.7172 19.0828C13.7922 19.1579 13.8939 19.2 14 19.2C14.1061 19.2 14.2079 19.1579 14.2829 19.0828C14.3579 19.0078 14.4 18.9061 14.4 18.8V18.4H15.2V18.8C15.2 18.9061 15.2422 19.0078 15.3172 19.0828C15.3922 19.1579 15.4939 19.2 15.6 19.2C15.7061 19.2 15.8079 19.1579 15.8829 19.0828C15.9579 19.0078 16 18.9061 16 18.8V18.4H16.8V18.8C16.8 18.9061 16.8422 19.0078 16.9172 19.0828C16.9922 19.1579 17.0939 19.2 17.2 19.2C17.3061 19.2 17.4079 19.1579 17.4829 19.0828C17.5579 19.0078 17.6 18.9061 17.6 18.8V18.4H18.4V18.8C18.4 18.9061 18.4422 19.0078 18.5172 19.0828C18.5922 19.1579 18.6939 19.2 18.8 19.2C18.9061 19.2 19.0079 19.1579 19.0829 19.0828C19.1579 19.0078 19.2 18.9061 19.2 18.8V18.4H20V20H18Z" fill="#90CBF9"/>
<path d="M2.8 12.4V12.8H2.4C2.29391 12.8 2.19217 12.8421 2.11716 12.9172C2.04214 12.9922 2 13.0939 2 13.2C2 13.3061 2.04214 13.4078 2.11716 13.4828C2.19217 13.5579 2.29391 13.6 2.4 13.6H2.8V14C2.8 14.1061 2.84214 14.2078 2.91716 14.2828C2.99217 14.3579 3.09391 14.4 3.2 14.4H4.8C4.90609 14.4 5.00783 14.3579 5.08284 14.2828C5.15786 14.2078 5.2 14.1061 5.2 14V13.6H6V14C6 14.1061 6.04214 14.2078 6.11716 14.2828C6.19217 14.3579 6.29391 14.4 6.4 14.4H8C8.10609 14.4 8.20783 14.3579 8.28284 14.2828C8.35786 14.2078 8.4 14.1061 8.4 14V13.6H8.8C8.90609 13.6 9.00783 13.5579 9.08284 13.4828C9.15786 13.4078 9.2 13.3061 9.2 13.2C9.2 13.0939 9.15786 12.9922 9.08284 12.9172C9.00783 12.8421 8.90609 12.8 8.8 12.8H8.4V12.4C8.4 12.2939 8.35786 12.1922 8.28284 12.1172C8.20783 12.0421 8.10609 12 8 12H6.4C6.29391 12 6.19217 12.0421 6.11716 12.1172C6.04214 12.1922 6 12.2939 6 12.4V12.8H5.2V12.4C5.2 12.2939 5.15786 12.1922 5.08284 12.1172C5.00783 12.0421 4.90609 12 4.8 12H3.2C3.09391 12 2.99217 12.0421 2.91716 12.1172C2.84214 12.1922 2.8 12.2939 2.8 12.4ZM6.8 12.8H7.6V13.6H6.8V12.8ZM3.6 12.8H4.4V13.6H3.6V12.8Z" fill="#90CBF9"/>
<path d="M2.80002 22.4C3.02094 22.4 3.20002 22.2209 3.20002 22C3.20002 21.7791 3.02094 21.6 2.80002 21.6C2.57911 21.6 2.40002 21.7791 2.40002 22C2.40002 22.2209 2.57911 22.4 2.80002 22.4Z" fill="#90CBF9"/>
<path d="M4.4 22.4C4.62091 22.4 4.8 22.2209 4.8 22C4.8 21.7791 4.62091 21.6 4.4 21.6C4.17909 21.6 4 21.7791 4 22C4 22.2209 4.17909 22.4 4.4 22.4Z" fill="#90CBF9"/>
<path d="M5.99998 22.4C6.22089 22.4 6.39998 22.2209 6.39998 22C6.39998 21.7791 6.22089 21.6 5.99998 21.6C5.77906 21.6 5.59998 21.7791 5.59998 22C5.59998 22.2209 5.77906 22.4 5.99998 22.4Z" fill="#90CBF9"/>
<path d="M7.60001 22.4C7.82093 22.4 8.00001 22.2209 8.00001 22C8.00001 21.7791 7.82093 21.6 7.60001 21.6C7.3791 21.6 7.20001 21.7791 7.20001 22C7.20001 22.2209 7.3791 22.4 7.60001 22.4Z" fill="#90CBF9"/>
<path d="M9.99998 4.8C10.1061 4.8 10.2078 4.75786 10.2828 4.68284C10.3578 4.60783 10.4 4.50609 10.4 4.4V2.4C10.4 2.29391 10.3578 2.19217 10.2828 2.11716C10.2078 2.04214 10.1061 2 9.99998 2C9.89389 2 9.79215 2.04214 9.71713 2.11716C9.64212 2.19217 9.59998 2.29391 9.59998 2.4V4.4C9.59998 4.50609 9.64212 4.60783 9.71713 4.68284C9.79215 4.75786 9.89389 4.8 9.99998 4.8Z" fill="#90CBF9"/>
<path d="M9.99998 6.40001C10.2209 6.40001 10.4 6.22092 10.4 6.00001C10.4 5.77909 10.2209 5.60001 9.99998 5.60001C9.77906 5.60001 9.59998 5.77909 9.59998 6.00001C9.59998 6.22092 9.77906 6.40001 9.99998 6.40001Z" fill="#90CBF9"/>
<path d="M9.99998 8C10.2209 8 10.4 7.82091 10.4 7.6C10.4 7.37908 10.2209 7.2 9.99998 7.2C9.77906 7.2 9.59998 7.37908 9.59998 7.6C9.59998 7.82091 9.77906 8 9.99998 8Z" fill="#90CBF9"/>
<path d="M9.59998 10.4C9.59998 10.5061 9.64212 10.6078 9.71713 10.6828C9.79215 10.7579 9.89389 10.8 9.99998 10.8C10.1061 10.8 10.2078 10.7579 10.2828 10.6828C10.3578 10.6078 10.4 10.5061 10.4 10.4V9.2C10.4 9.09392 10.3578 8.99217 10.2828 8.91716C10.2078 8.84215 10.1061 8.8 9.99998 8.8C9.89389 8.8 9.79215 8.84215 9.71713 8.91716C9.64212 8.99217 9.59998 9.09392 9.59998 9.2V10.4Z" fill="#90CBF9"/>
<path d="M1.99998 6.40001C2.22089 6.40001 2.39998 6.22092 2.39998 6.00001C2.39998 5.77909 2.22089 5.60001 1.99998 5.60001C1.77906 5.60001 1.59998 5.77909 1.59998 6.00001C1.59998 6.22092 1.77906 6.40001 1.99998 6.40001Z" fill="#90CBF9"/>
<path d="M1.99998 8C2.22089 8 2.39998 7.82091 2.39998 7.6C2.39998 7.37908 2.22089 7.2 1.99998 7.2C1.77906 7.2 1.59998 7.37908 1.59998 7.6C1.59998 7.82091 1.77906 8 1.99998 8Z" fill="#90CBF9"/>
<path d="M1.99998 4.8C2.22089 4.8 2.39998 4.62091 2.39998 4.4C2.39998 4.17909 2.22089 4 1.99998 4C1.77906 4 1.59998 4.17909 1.59998 4.4C1.59998 4.62091 1.77906 4.8 1.99998 4.8Z" fill="#90CBF9"/>
<path d="M1.59998 10.4C1.59998 10.5061 1.64212 10.6078 1.71713 10.6828C1.79215 10.7579 1.89389 10.8 1.99998 10.8C2.10606 10.8 2.2078 10.7579 2.28282 10.6828C2.35783 10.6078 2.39998 10.5061 2.39998 10.4V9.2C2.39998 9.09392 2.35783 8.99217 2.28282 8.91716C2.2078 8.84215 2.10606 8.8 1.99998 8.8C1.89389 8.8 1.79215 8.84215 1.71713 8.91716C1.64212 8.99217 1.59998 9.09392 1.59998 9.2V10.4Z" fill="#90CBF9"/>
<path d="M1.99998 2C1.89389 2 1.79215 2.04214 1.71713 2.11716C1.64212 2.19217 1.59998 2.29391 1.59998 2.4V2.8C1.59998 2.90609 1.64212 3.00783 1.71713 3.08284C1.79215 3.15786 1.89389 3.2 1.99998 3.2C2.10606 3.2 2.2078 3.15786 2.28282 3.08284C2.35783 3.00783 2.39998 2.90609 2.39998 2.8V2.4C2.39998 2.29391 2.35783 2.19217 2.28282 2.11716C2.2078 2.04214 2.10606 2 1.99998 2Z" fill="#90CBF9"/>
<path d="M16.8 5.2H15.2C15.0939 5.2 14.9922 5.24214 14.9171 5.31715C14.8421 5.39217 14.8 5.49391 14.8 5.6V7.2C14.8 7.30608 14.8421 7.40783 14.9171 7.48284C14.9922 7.55785 15.0939 7.6 15.2 7.6H16.8C16.9061 7.6 17.0078 7.55785 17.0828 7.48284C17.1578 7.40783 17.2 7.30608 17.2 7.2V5.6C17.2 5.49391 17.1578 5.39217 17.0828 5.31715C17.0078 5.24214 16.9061 5.2 16.8 5.2ZM16.4 6.8H15.6V6H16.4V6.8Z" fill="#90CBF9"/>
<path d="M18 2.79999C18 2.69391 17.9579 2.59217 17.8828 2.51715C17.8078 2.44214 17.7061 2.39999 17.6 2.39999C17.4939 2.39999 17.3922 2.44214 17.3172 2.51715C17.2421 2.59217 17.2 2.69391 17.2 2.79999V3.59999H16.4V2.79999C16.4 2.69391 16.3579 2.59217 16.2828 2.51715C16.2078 2.44214 16.1061 2.39999 16 2.39999C15.8939 2.39999 15.7922 2.44214 15.7172 2.51715C15.6421 2.59217 15.6 2.69391 15.6 2.79999V3.59999H14.8V2.79999C14.8 2.69391 14.7579 2.59217 14.6828 2.51715C14.6078 2.44214 14.5061 2.39999 14.4 2.39999C14.2939 2.39999 14.1922 2.44214 14.1172 2.51715C14.0421 2.59217 14 2.69391 14 2.79999V3.59999H13.6C13.4939 3.59999 13.3922 3.64214 13.3172 3.71715C13.2421 3.79217 13.2 3.89391 13.2 3.99999V4.39999H12.4C12.2939 4.39999 12.1922 4.44214 12.1172 4.51715C12.0421 4.59217 12 4.69391 12 4.79999C12 4.90608 12.0421 5.00782 12.1172 5.08284C12.1922 5.15785 12.2939 5.19999 12.4 5.19999H13.2V5.99999H12.4C12.2939 5.99999 12.1922 6.04214 12.1172 6.11715C12.0421 6.19217 12 6.29391 12 6.39999C12 6.50608 12.0421 6.60782 12.1172 6.68284C12.1922 6.75785 12.2939 6.79999 12.4 6.79999H13.2V7.59999H12.4C12.2939 7.59999 12.1922 7.64214 12.1172 7.71715C12.0421 7.79217 12 7.89391 12 7.99999C12 8.10608 12.0421 8.20782 12.1172 8.28284C12.1922 8.35785 12.2939 8.39999 12.4 8.39999H13.2V8.79999C13.2 8.90608 13.2421 9.00782 13.3172 9.08284C13.3922 9.15785 13.4939 9.19999 13.6 9.19999H14V9.99999C14 10.1061 14.0421 10.2078 14.1172 10.2828C14.1922 10.3579 14.2939 10.4 14.4 10.4C14.5061 10.4 14.6078 10.3579 14.6828 10.2828C14.7579 10.2078 14.8 10.1061 14.8 9.99999V9.19999H15.6V9.99999C15.6 10.1061 15.6421 10.2078 15.7172 10.2828C15.7922 10.3579 15.8939 10.4 16 10.4C16.1061 10.4 16.2078 10.3579 16.2828 10.2828C16.3579 10.2078 16.4 10.1061 16.4 9.99999V9.19999H17.2V9.99999C17.2 10.1061 17.2421 10.2078 17.3172 10.2828C17.3922 10.3579 17.4939 10.4 17.6 10.4C17.7061 10.4 17.8078 10.3579 17.8828 10.2828C17.9579 10.2078 18 10.1061 18 9.99999V9.19999H18.4C18.5061 9.19999 18.6078 9.15785 18.6828 9.08284C18.7579 9.00782 18.8 8.90608 18.8 8.79999V8.39999H19.6C19.7061 8.39999 19.8078 8.35785 19.8828 8.28284C19.9579 8.20782 20 8.10608 20 7.99999C20 7.89391 19.9579 7.79217 19.8828 7.71715C19.8078 7.64214 19.7061 7.59999 19.6 7.59999H18.8V6.79999H19.6C19.7061 6.79999 19.8078 6.75785 19.8828 6.68284C19.9579 6.60782 20 6.50608 20 6.39999C20 6.29391 19.9579 6.19217 19.8828 6.11715C19.8078 6.04214 19.7061 5.99999 19.6 5.99999H18.8V5.19999H19.6C19.7061 5.19999 19.8078 5.15785 19.8828 5.08284C19.9579 5.00782 20 4.90608 20 4.79999C20 4.69391 19.9579 4.59217 19.8828 4.51715C19.8078 4.44214 19.7061 4.39999 19.6 4.39999H18.8V3.99999C18.8 3.89391 18.7579 3.79217 18.6828 3.71715C18.6078 3.64214 18.5061 3.59999 18.4 3.59999H18V2.79999ZM18 8.39999H14V4.39999H18V8.39999Z" fill="#90CBF9"/>
<path d="M3.60001 16.8C3.49393 16.8 3.39218 16.8421 3.31717 16.9172C3.24216 16.9922 3.20001 17.0939 3.20001 17.2V18.8C3.20001 18.9061 3.24216 19.0078 3.31717 19.0828C3.39218 19.1579 3.49393 19.2 3.60001 19.2H5.20001C5.3061 19.2 5.40784 19.1579 5.48285 19.0828C5.55787 19.0078 5.60001 18.9061 5.60001 18.8V17.2C5.60001 17.0939 5.55787 16.9922 5.48285 16.9172C5.40784 16.8421 5.3061 16.8 5.20001 16.8H3.60001ZM4.80001 18.4H4.00001V17.6H4.80001V18.4Z" fill="#90CBF9"/>
<path d="M6.80002 17.6H7.60002C7.70611 17.6 7.80785 17.5579 7.88287 17.4828C7.95788 17.4078 8.00002 17.3061 8.00002 17.2C8.00002 17.0939 7.95788 16.9922 7.88287 16.9172C7.80785 16.8421 7.70611 16.8 7.60002 16.8H6.80002C6.69394 16.8 6.5922 16.8421 6.51718 16.9172C6.44217 16.9922 6.40002 17.0939 6.40002 17.2C6.40002 17.3061 6.44217 17.4078 6.51718 17.4828C6.5922 17.5579 6.69394 17.6 6.80002 17.6Z" fill="#90CBF9"/>
<path d="M6.80002 19.2H7.60002C7.70611 19.2 7.80785 19.1579 7.88287 19.0828C7.95788 19.0078 8.00002 18.9061 8.00002 18.8C8.00002 18.6939 7.95788 18.5922 7.88287 18.5172C7.80785 18.4421 7.70611 18.4 7.60002 18.4H6.80002C6.69394 18.4 6.5922 18.4421 6.51718 18.5172C6.44217 18.5922 6.40002 18.6939 6.40002 18.8C6.40002 18.9061 6.44217 19.0078 6.51718 19.0828C6.5922 19.1579 6.69394 19.2 6.80002 19.2Z" fill="#90CBF9"/>
<path d="M12.4 10.4C12.6209 10.4 12.8 10.2209 12.8 10C12.8 9.77909 12.6209 9.60001 12.4 9.60001C12.1791 9.60001 12 9.77909 12 10C12 10.2209 12.1791 10.4 12.4 10.4Z" fill="#90CBF9"/>
<path d="M19.6 10.4C19.8209 10.4 20 10.2209 20 10C20 9.77909 19.8209 9.60001 19.6 9.60001C19.3791 9.60001 19.2 9.77909 19.2 10C19.2 10.2209 19.3791 10.4 19.6 10.4Z" fill="#90CBF9"/>
<path d="M12.4 3.19999C12.6209 3.19999 12.8 3.02091 12.8 2.79999C12.8 2.57908 12.6209 2.39999 12.4 2.39999C12.1791 2.39999 12 2.57908 12 2.79999C12 3.02091 12.1791 3.19999 12.4 3.19999Z" fill="#90CBF9"/>
<path d="M19.6 3.19999C19.8209 3.19999 20 3.02091 20 2.79999C20 2.57908 19.8209 2.39999 19.6 2.39999C19.3791 2.39999 19.2 2.57908 19.2 2.79999C19.2 3.02091 19.3791 3.19999 19.6 3.19999Z" fill="#90CBF9"/>
<path d="M23.6 12.8C23.7061 12.8 23.8078 12.7579 23.8828 12.6828C23.9579 12.6078 24 12.5061 24 12.4V8C24 7.89391 23.9579 7.79217 23.8828 7.71716C23.8078 7.64214 23.7061 7.6 23.6 7.6H22.4V5.2H23.2C23.3061 5.2 23.4078 5.15786 23.4828 5.08284C23.5579 5.00783 23.6 4.90609 23.6 4.8C23.6 4.69391 23.5579 4.59217 23.4828 4.51716C23.4078 4.44214 23.3061 4.4 23.2 4.4H22.4V3.6H23.2C23.3061 3.6 23.4078 3.55786 23.4828 3.48284C23.5579 3.40783 23.6 3.30609 23.6 3.2C23.6 3.09391 23.5579 2.99217 23.4828 2.91716C23.4078 2.84214 23.3061 2.8 23.2 2.8H22.4V2H23.2C23.3061 2 23.4078 1.95786 23.4828 1.88284C23.5579 1.80783 23.6 1.70609 23.6 1.6C23.6 1.49391 23.5579 1.39217 23.4828 1.31716C23.4078 1.24214 23.3061 1.2 23.2 1.2H22.4V0.4C22.4 0.293913 22.3579 0.192172 22.2828 0.117157C22.2078 0.0421427 22.1061 0 22 0H19.2C19.0939 0 18.9922 0.0421427 18.9172 0.117157C18.8421 0.192172 18.8 0.293913 18.8 0.4C18.8 0.506087 18.8421 0.607828 18.9172 0.682843C18.9922 0.757857 19.0939 0.8 19.2 0.8H21.6V23.2H19.2V22C19.2 21.8939 19.1579 21.7922 19.0828 21.7172C19.0078 21.6421 18.9061 21.6 18.8 21.6C18.6939 21.6 18.5922 21.6421 18.5172 21.7172C18.4421 21.7922 18.4 21.8939 18.4 22V23.2H17.6V22C17.6 21.8939 17.5579 21.7922 17.4828 21.7172C17.4078 21.6421 17.3061 21.6 17.2 21.6C17.0939 21.6 16.9922 21.6421 16.9172 21.7172C16.8421 21.7922 16.8 21.8939 16.8 22V23.2H16V22C16 21.8939 15.9579 21.7922 15.8828 21.7172C15.8078 21.6421 15.7061 21.6 15.6 21.6C15.4939 21.6 15.3922 21.6421 15.3172 21.7172C15.2421 21.7922 15.2 21.8939 15.2 22V23.2H14.4V22C14.4 21.8939 14.3579 21.7922 14.2828 21.7172C14.2078 21.6421 14.1061 21.6 14 21.6C13.8939 21.6 13.7922 21.6421 13.7172 21.7172C13.6421 21.7922 13.6 21.8939 13.6 22V23.2H12.8V22C12.8 21.8939 12.7579 21.7922 12.6828 21.7172C12.6078 21.6421 12.5061 21.6 12.4 21.6C12.2939 21.6 12.1922 21.6421 12.1172 21.7172C12.0421 21.7922 12 21.8939 12 22V23.2H11.2V22C11.2 21.8939 11.1579 21.7922 11.0828 21.7172C11.0078 21.6421 10.9061 21.6 10.8 21.6C10.6939 21.6 10.5922 21.6421 10.5172 21.7172C10.4421 21.7922 10.4 21.8939 10.4 22V23.2H0.8V15.2C0.8 15.0939 0.757857 14.9922 0.682843 14.9172C0.607828 14.8421 0.506087 14.8 0.4 14.8C0.293913 14.8 0.192172 14.8421 0.117157 14.9172C0.0421427 14.9922 0 15.0939 0 15.2V23.6C0 23.7061 0.0421427 23.8078 0.117157 23.8828C0.192172 23.9579 0.293913 24 0.4 24H22C22.1061 24 22.2078 23.9579 22.2828 23.8828C22.3579 23.8078 22.4 23.7061 22.4 23.6V21.2H23.6C23.7061 21.2 23.8078 21.1579 23.8828 21.0828C23.9579 21.0078 24 20.9061 24 20.8C24 20.6939 23.9579 20.5922 23.8828 20.5172C23.8078 20.4421 23.7061 20.4 23.6 20.4H22.4V19.6H23.6C23.7061 19.6 23.8078 19.5579 23.8828 19.4828C23.9579 19.4078 24 19.3061 24 19.2V17.6C24 17.4939 23.9579 17.3922 23.8828 17.3172C23.8078 17.2421 23.7061 17.2 23.6 17.2H22.4V16H23.6C23.7061 16 23.8078 15.9579 23.8828 15.8828C23.9579 15.8078 24 15.7061 24 15.6V14C24 13.8939 23.9579 13.7922 23.8828 13.7172C23.8078 13.6421 23.7061 13.6 23.6 13.6C23.4939 13.6 23.3922 13.6421 23.3172 13.7172C23.2421 13.7922 23.2 13.8939 23.2 14V15.2H22.4V8.4H23.2V12.4C23.2 12.5061 23.2421 12.6078 23.3172 12.6828C23.3922 12.7579 23.4939 12.8 23.6 12.8ZM23.2 18V18.8H22.4V18H23.2Z" fill="#90CBF9"/>
<path d="M0.4 14C0.506087 14 0.607828 13.9579 0.682843 13.8828C0.757857 13.8078 0.8 13.7061 0.8 13.6V0.8H17.6C17.7061 0.8 17.8078 0.757857 17.8828 0.682843C17.9579 0.607828 18 0.506087 18 0.4C18 0.293913 17.9579 0.192172 17.8828 0.117157C17.8078 0.0421427 17.7061 0 17.6 0H0.4C0.293913 0 0.192172 0.0421427 0.117157 0.117157C0.0421427 0.192172 0 0.293913 0 0.4V13.6C0 13.7061 0.0421427 13.8078 0.117157 13.8828C0.192172 13.9579 0.293913 14 0.4 14Z" fill="#90CBF9"/>
<path d="M9.19998 20.8C9.30606 20.8 9.4078 20.7579 9.48282 20.6828C9.55783 20.6078 9.59998 20.5061 9.59998 20.4V15.6C9.59998 15.4939 9.55783 15.3922 9.48282 15.3172C9.4078 15.2421 9.30606 15.2 9.19998 15.2H1.99998C1.89389 15.2 1.79215 15.2421 1.71713 15.3172C1.64212 15.3922 1.59998 15.4939 1.59998 15.6V20.4C1.59998 20.5061 1.64212 20.6078 1.71713 20.6828C1.79215 20.7579 1.89389 20.8 1.99998 20.8H6.39998C6.50606 20.8 6.6078 20.7579 6.68282 20.6828C6.75783 20.6078 6.79998 20.5061 6.79998 20.4C6.79998 20.2939 6.75783 20.1922 6.68282 20.1172C6.6078 20.0421 6.50606 20 6.39998 20H2.39998V16H8.79998V20H7.99998C7.89389 20 7.79215 20.0421 7.71713 20.1172C7.64212 20.1922 7.59998 20.2939 7.59998 20.4C7.59998 20.5061 7.64212 20.6078 7.71713 20.6828C7.79215 20.7579 7.89389 20.8 7.99998 20.8H9.19998Z" fill="#90CBF9"/>
</svg>
