<svg width="24" height="24" viewBox="0 0 24 24" fill="none" xmlns="http://www.w3.org/2000/svg">
<g clip-path="url(#clip0)">
<path d="M23.6484 10.7416C23.8426 10.7416 24 10.5842 24 10.39V7.73836C24 7.5442 23.8426 7.3868 23.6484 7.3868H4.21875C4.02459 7.3868 3.86719 7.5442 3.86719 7.73836C3.86719 7.93251 4.02459 8.08992 4.21875 8.08992H23.2969V10.0804C22.6455 10.2388 22.1604 10.8271 22.1604 11.5265C22.1604 12.2258 22.6455 12.8141 23.2969 12.9725V15.91H22.6741V14.8411C22.6741 14.6469 22.5167 14.4895 22.3226 14.4895H9.63244C9.43828 14.4895 9.28088 14.6469 9.28088 14.8411V15.9101H8.65819V15.5514C8.65819 14.9659 8.18184 14.4896 7.59633 14.4896C7.01081 14.4896 6.53452 14.9659 6.53452 15.5514V15.9101H5.91178V14.8411C5.91178 14.6469 5.75437 14.4895 5.56022 14.4895H1.67742C1.48327 14.4895 1.32586 14.6469 1.32586 14.8411V15.9101H0.703125V12.9726C1.3545 12.8142 1.83956 12.2259 1.83956 11.5265C1.83956 10.8271 1.3545 10.2388 0.703125 10.0804V8.08992H2.57667C2.77083 8.08992 2.92823 7.93251 2.92823 7.73836C2.92823 7.5442 2.77083 7.3868 2.57667 7.3868H0.351562C0.157406 7.3868 0 7.5442 0 7.73836V10.39C0 10.5842 0.157406 10.7416 0.351562 10.7416C0.784359 10.7416 1.13644 11.0937 1.13644 11.5265C1.13644 11.9592 0.784359 12.3113 0.351562 12.3113C0.157406 12.3113 0 12.4687 0 12.6629V16.2616C0 16.4557 0.157406 16.6132 0.351562 16.6132H3.22462C3.41878 16.6132 3.57619 16.4557 3.57619 16.2616C3.57619 16.0674 3.41878 15.91 3.22462 15.91H2.02898V15.1927H5.20866V15.9101H4.875C4.68084 15.9101 4.52344 16.0675 4.52344 16.2616C4.52344 16.4558 4.68084 16.6132 4.875 16.6132H6.88603C7.08019 16.6132 7.23759 16.4558 7.23759 16.2616V15.5514C7.23759 15.3536 7.39852 15.1927 7.59628 15.1927C7.79405 15.1927 7.95502 15.3536 7.95502 15.5514V16.2616C7.95502 16.4558 8.11242 16.6132 8.30658 16.6132H18.8188C19.013 16.6132 19.1704 16.4558 19.1704 16.2616C19.1704 16.0675 19.013 15.9101 18.8188 15.9101H9.984V15.1927H21.9711V15.9101H20.4629C20.2687 15.9101 20.1113 16.0675 20.1113 16.2616C20.1113 16.4558 20.2687 16.6132 20.4629 16.6132H23.6484C23.8426 16.6132 24 16.4558 24 16.2616V12.663C24 12.4688 23.8426 12.3114 23.6484 12.3114C23.2156 12.3114 22.8636 11.9593 22.8636 11.5265C22.8636 11.0937 23.2156 10.7416 23.6484 10.7416V10.7416Z" fill="#90CBF9"/>
<path d="M20.7127 13.488C20.9068 13.488 21.0642 13.3306 21.0642 13.1364V9.34833C21.0642 9.15417 20.9068 8.99677 20.7127 8.99677H18.8186C18.6244 8.99677 18.467 9.15417 18.467 9.34833V13.1364C18.467 13.3306 18.6244 13.488 18.8186 13.488H20.7127ZM19.1702 9.69989H20.3611V12.7849H19.1702V9.69989Z" fill="#90CBF9"/>
<path d="M16.8299 13.488C17.024 13.488 17.1814 13.3306 17.1814 13.1364V9.34833C17.1814 9.15417 17.024 8.99677 16.8299 8.99677H14.9358C14.7416 8.99677 14.5842 9.15417 14.5842 9.34833V13.1364C14.5842 13.3306 14.7416 13.488 14.9358 13.488H16.8299ZM15.2874 9.69989H16.4783V12.7849H15.2874V9.69989Z" fill="#90CBF9"/>
<path d="M7.17011 13.488H9.06418C9.25834 13.488 9.41575 13.3306 9.41575 13.1364V9.34833C9.41575 9.15417 9.25834 8.99677 9.06418 8.99677H7.17011C6.97595 8.99677 6.81854 9.15417 6.81854 9.34833V13.1364C6.81854 13.3306 6.97595 13.488 7.17011 13.488V13.488ZM7.52167 9.69989H8.71262V12.7849H7.52167V9.69989Z" fill="#90CBF9"/>
<path d="M3.28735 13.488H5.18144C5.37559 13.488 5.533 13.3306 5.533 13.1364V9.34833C5.533 9.15417 5.37559 8.99677 5.18144 8.99677H3.28735C3.0932 8.99677 2.93579 9.15417 2.93579 9.34833V13.1364C2.93579 13.3306 3.0932 13.488 3.28735 13.488ZM3.63892 9.69989H4.82987V12.7849H3.63892V9.69989Z" fill="#90CBF9"/>
<path d="M12.947 13.488C13.1412 13.488 13.2986 13.3306 13.2986 13.1364V9.34833C13.2986 9.15417 13.1412 8.99677 12.947 8.99677H11.053C10.8588 8.99677 10.7014 9.15417 10.7014 9.34833V13.1364C10.7014 13.3306 10.8588 13.488 11.053 13.488H12.947ZM11.4045 9.69989H12.5954V12.7849H11.4045V9.69989Z" fill="#90CBF9"/>
</g>
<defs>
<clipPath id="clip0">
<rect width="24" height="24" fill="white"/>
</clipPath>
</defs>
</svg>
