<svg width="24" height="24" viewBox="0 0 24 24" fill="none" xmlns="http://www.w3.org/2000/svg">
<path d="M19.875 17.625C19.9745 17.625 20.0698 17.6645 20.1402 17.7348C20.2105 17.8052 20.25 17.9005 20.25 18C20.25 18.0995 20.2895 18.1948 20.3598 18.2652C20.4302 18.3355 20.5255 18.375 20.625 18.375C20.7245 18.375 20.8198 18.3355 20.8902 18.2652C20.9605 18.1948 21 18.0995 21 18C21 17.7775 20.934 17.56 20.8104 17.375C20.6868 17.19 20.5111 17.0458 20.3055 16.9606C20.1 16.8755 19.8738 16.8532 19.6555 16.8966C19.4373 16.94 19.2368 17.0472 19.0795 17.2045C18.9222 17.3618 18.815 17.5623 18.7716 17.7805C18.7282 17.9988 18.7505 18.225 18.8356 18.4305C18.9208 18.6361 19.065 18.8118 19.25 18.9354C19.435 19.059 19.6525 19.125 19.875 19.125C19.9745 19.125 20.0698 19.0855 20.1402 19.0152C20.2105 18.9448 20.25 18.8495 20.25 18.75C20.25 18.6505 20.2105 18.5552 20.1402 18.4848C20.0698 18.4145 19.9745 18.375 19.875 18.375C19.7755 18.375 19.6802 18.3355 19.6098 18.2652C19.5395 18.1948 19.5 18.0995 19.5 18C19.5 17.9005 19.5395 17.8052 19.6098 17.7348C19.6802 17.6645 19.7755 17.625 19.875 17.625Z" fill="#90CBF9"/>
<path d="M19.875 4.875C19.6525 4.875 19.435 4.94098 19.25 5.0646C19.065 5.18821 18.9208 5.36391 18.8356 5.56948C18.7505 5.77505 18.7282 6.00125 18.7716 6.21948C18.815 6.43771 18.9222 6.63816 19.0795 6.7955C19.2368 6.95283 19.4373 7.05998 19.6555 7.10338C19.8738 7.14679 20.1 7.12451 20.3055 7.03936C20.5111 6.95422 20.6868 6.81002 20.8104 6.62502C20.934 6.44001 21 6.2225 21 6C21 5.70163 20.8815 5.41548 20.6705 5.2045C20.4595 4.99353 20.1734 4.875 19.875 4.875V4.875ZM19.875 6.375C19.8008 6.375 19.7283 6.35301 19.6667 6.3118C19.605 6.2706 19.5569 6.21203 19.5285 6.14351C19.5002 6.07498 19.4927 5.99958 19.5072 5.92684C19.5217 5.8541 19.5574 5.78728 19.6098 5.73484C19.6623 5.68239 19.7291 5.64668 19.8018 5.63221C19.8746 5.61774 19.95 5.62516 20.0185 5.65355C20.087 5.68193 20.1456 5.72999 20.1868 5.79166C20.228 5.85333 20.25 5.92583 20.25 6C20.25 6.09946 20.2105 6.19484 20.1402 6.26517C20.0698 6.33549 19.9745 6.375 19.875 6.375Z" fill="#90CBF9"/>
<path d="M3.375 19.125C3.5975 19.125 3.81501 19.059 4.00001 18.9354C4.18502 18.8118 4.32921 18.6361 4.41436 18.4305C4.49951 18.225 4.52179 17.9988 4.47838 17.7805C4.43497 17.5623 4.32783 17.3618 4.17049 17.2045C4.01316 17.0472 3.8127 16.94 3.59447 16.8966C3.37625 16.8532 3.15005 16.8755 2.94448 16.9606C2.73891 17.0458 2.56321 17.19 2.4396 17.375C2.31598 17.56 2.25 17.7775 2.25 18C2.25 18.2984 2.36853 18.5845 2.5795 18.7955C2.79048 19.0065 3.07663 19.125 3.375 19.125ZM3.375 17.625C3.44917 17.625 3.52167 17.647 3.58334 17.6882C3.64501 17.7294 3.69307 17.788 3.72145 17.8565C3.74984 17.925 3.75726 18.0004 3.74279 18.0732C3.72832 18.1459 3.69261 18.2127 3.64016 18.2652C3.58772 18.3176 3.5209 18.3533 3.44816 18.3678C3.37541 18.3823 3.30001 18.3748 3.23149 18.3465C3.16297 18.3181 3.1044 18.27 3.0632 18.2083C3.02199 18.1467 3 18.0742 3 18C3 17.9005 3.03951 17.8052 3.10983 17.7348C3.18016 17.6645 3.27554 17.625 3.375 17.625V17.625Z" fill="#90CBF9"/>
<path d="M3.375 7.125C3.5975 7.125 3.81501 7.05902 4.00001 6.9354C4.18502 6.81179 4.32921 6.63609 4.41436 6.43052C4.49951 6.22495 4.52179 5.99875 4.47838 5.78052C4.43497 5.5623 4.32783 5.36184 4.17049 5.20451C4.01316 5.04717 3.8127 4.94003 3.59447 4.89662C3.37625 4.85321 3.15005 4.87549 2.94448 4.96064C2.73891 5.04578 2.56321 5.18998 2.4396 5.37498C2.31598 5.55999 2.25 5.7775 2.25 6C2.25 6.29837 2.36853 6.58452 2.5795 6.7955C2.79048 7.00647 3.07663 7.125 3.375 7.125ZM3.375 5.625C3.44917 5.625 3.52167 5.64699 3.58334 5.6882C3.64501 5.72941 3.69307 5.78797 3.72145 5.85649C3.74984 5.92502 3.75726 6.00042 3.74279 6.07316C3.72832 6.1459 3.69261 6.21272 3.64016 6.26517C3.58772 6.31761 3.5209 6.35333 3.44816 6.3678C3.37541 6.38226 3.30001 6.37484 3.23149 6.34646C3.16297 6.31807 3.1044 6.27001 3.0632 6.20834C3.02199 6.14667 3 6.07417 3 6C3 5.90054 3.03951 5.80516 3.10983 5.73484C3.18016 5.66451 3.27554 5.625 3.375 5.625V5.625Z" fill="#90CBF9"/>
<path d="M8.25 13.875C8.05109 13.875 7.86033 13.796 7.71967 13.6553C7.57902 13.5147 7.5 13.3239 7.5 13.125C7.5 13.0255 7.46049 12.9302 7.39017 12.8598C7.31984 12.7895 7.22446 12.75 7.125 12.75C7.02555 12.75 6.93016 12.7895 6.85984 12.8598C6.78951 12.9302 6.75 13.0255 6.75 13.125C6.75 13.4217 6.83797 13.7117 7.0028 13.9584C7.16762 14.205 7.40189 14.3973 7.67598 14.5108C7.95007 14.6244 8.25167 14.6541 8.54264 14.5962C8.83361 14.5383 9.10089 14.3954 9.31067 14.1857C9.52045 13.9759 9.66331 13.7086 9.72119 13.4176C9.77906 13.1267 9.74936 12.8251 9.63583 12.551C9.5223 12.2769 9.33004 12.0426 9.08336 11.8778C8.83669 11.713 8.54668 11.625 8.25 11.625C8.10167 11.625 7.95666 11.581 7.83333 11.4986C7.70999 11.4162 7.61386 11.2991 7.55709 11.162C7.50033 11.025 7.48547 10.8742 7.51441 10.7287C7.54335 10.5832 7.61478 10.4496 7.71967 10.3447C7.82456 10.2398 7.9582 10.1684 8.10369 10.1394C8.24917 10.1105 8.39997 10.1253 8.53702 10.1821C8.67406 10.2389 8.7912 10.335 8.87361 10.4583C8.95602 10.5817 9.00001 10.7267 9.00001 10.875C9.00001 10.9745 9.03952 11.0698 9.10984 11.1402C9.18017 11.2105 9.27555 11.25 9.37501 11.25C9.47446 11.25 9.56985 11.2105 9.64017 11.1402C9.7105 11.0698 9.75001 10.9745 9.75001 10.875C9.75001 10.5783 9.66203 10.2883 9.49721 10.0416C9.33239 9.79497 9.09812 9.60271 8.82403 9.48918C8.54994 9.37565 8.24834 9.34594 7.95737 9.40382C7.6664 9.4617 7.39912 9.60456 7.18934 9.81434C6.97956 10.0241 6.8367 10.2914 6.77882 10.5824C6.72094 10.8733 6.75065 11.1749 6.86418 11.449C6.97771 11.7231 7.16997 11.9574 7.41665 12.1222C7.66332 12.287 7.95333 12.375 8.25 12.375C8.44892 12.375 8.63968 12.454 8.78034 12.5947C8.92099 12.7353 9.00001 12.9261 9.00001 13.125C9.00001 13.3239 8.92099 13.5147 8.78034 13.6553C8.63968 13.796 8.44892 13.875 8.25 13.875Z" fill="#90CBF9"/>
<path d="M12 13.875C11.8011 13.875 11.6103 13.796 11.4697 13.6553C11.329 13.5147 11.25 13.3239 11.25 13.125C11.25 13.0255 11.2105 12.9302 11.1402 12.8598C11.0698 12.7895 10.9745 12.75 10.875 12.75C10.7755 12.75 10.6802 12.7895 10.6098 12.8598C10.5395 12.9302 10.5 13.0255 10.5 13.125C10.5 13.4217 10.588 13.7117 10.7528 13.9584C10.9176 14.205 11.1519 14.3973 11.426 14.5108C11.7001 14.6244 12.0017 14.6541 12.2926 14.5962C12.5836 14.5383 12.8509 14.3954 13.0607 14.1857C13.2704 13.9759 13.4133 13.7086 13.4712 13.4176C13.5291 13.1267 13.4994 12.8251 13.3858 12.551C13.2723 12.2769 13.08 12.0426 12.8334 11.8778C12.5867 11.713 12.2967 11.625 12 11.625C11.8517 11.625 11.7067 11.581 11.5833 11.4986C11.46 11.4162 11.3639 11.2991 11.3071 11.162C11.2503 11.025 11.2355 10.8742 11.2644 10.7287C11.2934 10.5832 11.3648 10.4496 11.4697 10.3447C11.5746 10.2398 11.7082 10.1684 11.8537 10.1394C11.9992 10.1105 12.15 10.1253 12.287 10.1821C12.4241 10.2389 12.5412 10.335 12.6236 10.4583C12.706 10.5817 12.75 10.7267 12.75 10.875C12.75 10.9745 12.7895 11.0698 12.8598 11.1402C12.9302 11.2105 13.0256 11.25 13.125 11.25C13.2245 11.25 13.3198 11.2105 13.3902 11.1402C13.4605 11.0698 13.5 10.9745 13.5 10.875C13.5 10.5783 13.412 10.2883 13.2472 10.0416C13.0824 9.79497 12.8481 9.60271 12.574 9.48918C12.2999 9.37565 11.9983 9.34594 11.7074 9.40382C11.4164 9.4617 11.1491 9.60456 10.9393 9.81434C10.7296 10.0241 10.5867 10.2914 10.5288 10.5824C10.4709 10.8733 10.5006 11.1749 10.6142 11.449C10.7277 11.7231 10.92 11.9574 11.1666 12.1222C11.4133 12.287 11.7033 12.375 12 12.375C12.1989 12.375 12.3897 12.454 12.5303 12.5947C12.671 12.7353 12.75 12.9261 12.75 13.125C12.75 13.3239 12.671 13.5147 12.5303 13.6553C12.3897 13.796 12.1989 13.875 12 13.875Z" fill="#90CBF9"/>
<path d="M15.75 14.625C16.1478 14.625 16.5294 14.467 16.8107 14.1857C17.092 13.9044 17.25 13.5228 17.25 13.125V10.875C17.25 10.4772 17.092 10.0956 16.8107 9.81434C16.5294 9.53304 16.1478 9.375 15.75 9.375H14.625C14.5255 9.375 14.4302 9.41451 14.3598 9.48483C14.2895 9.55516 14.25 9.65054 14.25 9.75V14.25C14.25 14.3495 14.2895 14.4448 14.3598 14.5152C14.4302 14.5855 14.5255 14.625 14.625 14.625H15.75ZM15 10.125H15.75C15.9489 10.125 16.1397 10.204 16.2803 10.3447C16.421 10.4853 16.5 10.6761 16.5 10.875V13.125C16.5 13.3239 16.421 13.5147 16.2803 13.6553C16.1397 13.796 15.9489 13.875 15.75 13.875H15V10.125Z" fill="#90CBF9"/>
<path d="M22.875 9.375C22.9745 9.375 23.0698 9.33549 23.1402 9.26517C23.2105 9.19484 23.25 9.09946 23.25 9V5.25C23.2494 4.7529 23.0517 4.27633 22.7002 3.92483C22.3487 3.57333 21.8721 3.3756 21.375 3.375H15.75C15.6505 3.375 15.5552 3.41451 15.4848 3.48484C15.4145 3.55516 15.375 3.65054 15.375 3.75C15.375 3.84946 15.4145 3.94484 15.4848 4.01516C15.5552 4.08549 15.6505 4.125 15.75 4.125H21.375C21.6734 4.125 21.9595 4.24353 22.1705 4.4545C22.3815 4.66548 22.5 4.95163 22.5 5.25V8.625H21.375C21.2755 8.625 21.1802 8.66451 21.1098 8.73483C21.0395 8.80516 21 8.90054 21 9V15C21 15.0995 21.0395 15.1948 21.1098 15.2652C21.1802 15.3355 21.2755 15.375 21.375 15.375H22.5V18.75C22.5 19.0484 22.3815 19.3345 22.1705 19.5455C21.9595 19.7565 21.6734 19.875 21.375 19.875H8.625C8.52554 19.875 8.43016 19.9145 8.35983 19.9848C8.28951 20.0552 8.25 20.1505 8.25 20.25C8.25 20.3495 8.28951 20.4448 8.35983 20.5152C8.43016 20.5855 8.52554 20.625 8.625 20.625H21.375C21.8721 20.6244 22.3487 20.4267 22.7002 20.0752C23.0517 19.7237 23.2494 19.2471 23.25 18.75V15C23.25 14.9005 23.2105 14.8052 23.1402 14.7348C23.0698 14.6645 22.9745 14.625 22.875 14.625H21.75V13.875H22.875C22.9745 13.875 23.0698 13.8355 23.1402 13.7652C23.2105 13.6948 23.25 13.5995 23.25 13.5C23.25 13.4005 23.2105 13.3052 23.1402 13.2348C23.0698 13.1645 22.9745 13.125 22.875 13.125H21.75V12.375H22.875C22.9745 12.375 23.0698 12.3355 23.1402 12.2652C23.2105 12.1948 23.25 12.0995 23.25 12C23.25 11.9005 23.2105 11.8052 23.1402 11.7348C23.0698 11.6645 22.9745 11.625 22.875 11.625H21.75V10.875H22.875C22.9745 10.875 23.0698 10.8355 23.1402 10.7652C23.2105 10.6948 23.25 10.5995 23.25 10.5C23.25 10.4005 23.2105 10.3052 23.1402 10.2348C23.0698 10.1645 22.9745 10.125 22.875 10.125H21.75V9.375H22.875Z" fill="#90CBF9"/>
<path d="M7.125 19.875H2.625C2.32663 19.875 2.04048 19.7565 1.8295 19.5455C1.61853 19.3345 1.5 19.0484 1.5 18.75V5.25C1.5 4.95163 1.61853 4.66548 1.8295 4.4545C2.04048 4.24353 2.32663 4.125 2.625 4.125H14.25C14.3495 4.125 14.4448 4.08549 14.5152 4.01516C14.5855 3.94484 14.625 3.84946 14.625 3.75C14.625 3.65054 14.5855 3.55516 14.5152 3.48484C14.4448 3.41451 14.3495 3.375 14.25 3.375H2.625C2.1279 3.3756 1.65133 3.57333 1.29983 3.92483C0.948331 4.27633 0.750595 4.7529 0.75 5.25V18.75C0.750595 19.2471 0.948331 19.7237 1.29983 20.0752C1.65133 20.4267 2.1279 20.6244 2.625 20.625H7.125C7.22446 20.625 7.31984 20.5855 7.39017 20.5152C7.46049 20.4448 7.5 20.3495 7.5 20.25C7.5 20.1505 7.46049 20.0552 7.39017 19.9848C7.31984 19.9145 7.22446 19.875 7.125 19.875Z" fill="#90CBF9"/>
<path d="M18 6C18 5.90054 17.9605 5.80516 17.8902 5.73484C17.8198 5.66451 17.7245 5.625 17.625 5.625H5.625C5.52554 5.625 5.43016 5.66451 5.35984 5.73484C5.28951 5.80516 5.25 5.90054 5.25 6C5.25176 6.27316 5.19344 6.54337 5.07915 6.79148C4.96486 7.03959 4.79741 7.25953 4.58866 7.43572C4.3799 7.61191 4.13496 7.74003 3.87118 7.81102C3.6074 7.88201 3.33123 7.89412 3.06225 7.8465C3.0085 7.83745 2.95342 7.84023 2.90085 7.85464C2.84828 7.86906 2.79948 7.89476 2.75786 7.92995C2.71624 7.96515 2.68279 8.009 2.65984 8.05844C2.6369 8.10789 2.62501 8.16174 2.625 8.21625V11.25C2.625 11.3495 2.66451 11.4448 2.73484 11.5152C2.80516 11.5855 2.90054 11.625 3 11.625C3.09946 11.625 3.19484 11.5855 3.26516 11.5152C3.33549 11.4448 3.375 11.3495 3.375 11.25V8.625C4.00604 8.62421 4.61574 8.39649 5.09278 7.98341C5.56982 7.57032 5.88238 6.99944 5.97337 6.375H17.2766C17.3585 6.93558 17.619 7.45477 18.0196 7.85536C18.4202 8.25596 18.9394 8.51654 19.5 8.59838V15.4016C18.9394 15.4835 18.4202 15.744 18.0196 16.1446C17.619 16.5452 17.3585 17.0644 17.2766 17.625H5.97337C5.88238 17.0006 5.56982 16.4297 5.09278 16.0166C4.61574 15.6035 4.00604 15.3758 3.375 15.375V12.75C3.375 12.6505 3.33549 12.5552 3.26516 12.4848C3.19484 12.4145 3.09946 12.375 3 12.375C2.90054 12.375 2.80516 12.4145 2.73484 12.4848C2.66451 12.5552 2.625 12.6505 2.625 12.75V15.7838C2.62501 15.8383 2.6369 15.8921 2.65984 15.9416C2.68279 15.991 2.71624 16.0348 2.75786 16.07C2.79948 16.1052 2.84828 16.1309 2.90085 16.1454C2.95342 16.1598 3.0085 16.1625 3.06225 16.1535C3.33123 16.1059 3.6074 16.118 3.87118 16.189C4.13496 16.26 4.3799 16.3881 4.58866 16.5643C4.79741 16.7405 4.96486 16.9604 5.07915 17.2085C5.19344 17.4566 5.25176 17.7268 5.25 18C5.25 18.0995 5.28951 18.1948 5.35984 18.2652C5.43016 18.3355 5.52554 18.375 5.625 18.375H17.625C17.7245 18.375 17.8198 18.3355 17.8902 18.2652C17.9605 18.1948 18 18.0995 18 18C18.0006 17.5029 18.1983 17.0263 18.5498 16.6748C18.9013 16.3233 19.3779 16.1256 19.875 16.125C19.9745 16.125 20.0698 16.0855 20.1402 16.0152C20.2105 15.9448 20.25 15.8495 20.25 15.75V8.25C20.25 8.15054 20.2105 8.05516 20.1402 7.98483C20.0698 7.91451 19.9745 7.875 19.875 7.875C19.3779 7.8744 18.9013 7.67667 18.5498 7.32517C18.1983 6.97367 18.0006 6.4971 18 6V6Z" fill="#90CBF9"/>
</svg>
