<svg width="24" height="20" viewBox="0 0 24 20" fill="none" xmlns="http://www.w3.org/2000/svg">
<path d="M22.5 4.00003H3V0.500016C3 0.224016 2.77598 0 2.49998 0H0.500016C0.224016 4.6875e-05 0 0.224016 0 0.500016C0 0.776016 0.224016 1.00003 0.500016 1.00003H2.00002V5.00002H0.500016C0.224016 5.00002 0 5.22403 0 5.50003V9.50002C0 9.77602 0.224016 10 0.500016 10H2.00002V11H0.500016C0.224016 11 0 11.224 0 11.5V15.5C0 15.776 0.224016 16 0.500016 16H2.00002V19.5C2.00002 19.776 2.22403 20.0001 2.50003 20.0001C2.77603 20.0001 3 19.776 3 19.5V17.0001H5.00002V18.5001C5.00002 18.7761 5.22403 19.0001 5.50003 19.0001H14.5C14.776 19.0001 15 18.7761 15 18.5001V17.0001H16V18.5001C16 18.7761 16.224 19.0001 16.5 19.0001H21.5001C21.7761 19.0001 22.0001 18.7761 22.0001 18.5001V17.0001H22.5C23.327 17.0001 24 16.3271 24 15.5001V5.50003C24 4.67302 23.327 4.00003 22.5 4.00003ZM2.00002 15H0.999984V12H1.99997V15H2.00002ZM2.00002 9.00005H0.999984V6.00005H1.99997V9.00005H2.00002ZM14 18H6V17.0001H14V18V18ZM21 18H17V17.0001H21V18ZM23 15.5C23 15.776 22.776 16 22.5 16H3V5.00002H22.5C22.776 5.00002 23 5.22403 23 5.50003V15.5Z" fill="#90CBF9"/>
<path d="M11.4999 10C11.7759 10 12 9.77601 12 9.50001C12 9.22401 11.7759 9 11.4999 9H10.9999V8.50003C10.9999 8.22403 10.7759 8.00001 10.4999 8.00001H9.99989V7.5C9.99989 7.224 9.77588 6.99998 9.49988 6.99998C9.22388 6.99998 8.99996 7.22405 8.99996 7.50005V8.00006H7.99997V7.50005C7.99997 7.22405 7.77596 7.00003 7.49996 7.00003C7.22396 7.00003 6.99994 7.22405 6.99994 7.50005V8.00006H6.49992C6.22392 8.00006 5.99991 8.22408 5.99991 8.50008V9.00009H5.49989C5.22389 9.00009 4.99988 9.22411 4.99988 9.50011C4.99988 9.77611 5.22394 10 5.49994 10H5.99996V11H5.49994C5.22394 11 4.99992 11.224 4.99992 11.5C4.99992 11.776 5.22394 12 5.49994 12H5.99996V12.5001C5.99996 12.7761 6.22397 13.0001 6.49997 13.0001H6.99999V13.5001C6.99999 13.7761 7.224 14.0001 7.5 14.0001C7.776 14.0001 8.00002 13.7761 8.00002 13.5001V13H8.99996V13.5C8.99996 13.776 9.22397 14.0001 9.49997 14.0001C9.77597 14.0001 9.99999 13.776 9.99999 13.5V13H10.5C10.776 13 11 12.776 11 12.5V12H11.5C11.776 12 12 11.776 12 11.5C12 11.224 11.776 11 11.5 11H11V10H11.4999ZM9.99994 12H6.99994V9.00004H9.99994V12Z" fill="#90CBF9"/>
<path d="M20.5 7.00003H13.5C13.224 7.00003 13 7.22405 13 7.50005C13 7.77605 13.224 8.00006 13.5 8.00006H20.5C20.776 8.00006 21 7.77605 21 7.50005C21 7.22405 20.776 7.00003 20.5 7.00003Z" fill="#90CBF9"/>
<path d="M20.5 13H13.5C13.224 13 13 13.224 13 13.5C13 13.776 13.224 14.0001 13.5 14.0001H20.5C20.776 14.0001 21 13.776 21 13.5C21 13.224 20.776 13 20.5 13Z" fill="#90CBF9"/>
<path d="M20.5 9.00005H13.5C13.224 9.00005 13 9.22407 13 9.50007C13 9.77607 13.224 10 13.5 10H20.5C20.776 10 21 9.77603 21 9.50002C21 9.22402 20.776 9.00005 20.5 9.00005Z" fill="#90CBF9"/>
<path d="M20.5 11H13.5C13.224 11 13 11.224 13 11.5C13 11.776 13.224 12.0001 13.5 12.0001H20.5C20.776 12.0001 21 11.776 21 11.5C21 11.224 20.776 11 20.5 11Z" fill="#90CBF9"/>
</svg>
